<svg xmlns="http://www.w3.org/2000/svg" xmlns:xlink="http://www.w3.org/1999/xlink" width="152.667" height="172" viewBox="0 0 152.667 172">
  <defs>
    <filter id="Rectangle_23922" x="-40" y="-39" width="248.667" height="268" filterUnits="userSpaceOnUse">
      <feOffset dx="8" dy="9" input="SourceAlpha"/>
      <feGaussianBlur stdDeviation="16" result="blur"/>
      <feFlood flood-opacity="0.051"/>
      <feComposite operator="in" in2="blur"/>
      <feComposite in="SourceGraphic"/>
    </filter>
    <clipPath id="clip-path">
      <g transform="matrix(1, 0, 0, 1, 0, 0)" filter="url(#Rectangle_23922)">
        <rect id="Rectangle_23922-2" data-name="Rectangle 23922" width="152.667" height="172" rx="10" fill="#5046bb"/>
      </g>
    </clipPath>
  </defs>
  <g id="Mask_Group_11" data-name="Mask Group 11" clip-path="url(#clip-path)">
    <path id="Path_85081" data-name="Path 85081" d="M-269.306,260.029s54.125-15.719,39.6-68.525-60.882-40.744-55.414-111.828,62.491-110.922,62.491-110.922,49.993,78.9,49.993,86.707V207c0,2.343,18.747,44.525,18.747,44.525s-9.374,18.747-25,18.747S-269.306,260.029-269.306,260.029Z" transform="translate(354 19.971)" fill="#84e9f4" opacity="0.33"/>
    <path id="Path_85082" data-name="Path 85082" d="M-269.306,260.029s54.125-15.719,39.6-68.525-60.882-40.744-55.414-111.828,62.491-110.922,62.491-110.922,49.993,78.9,49.993,86.707V207c0,2.343,18.747,44.525,18.747,44.525s-9.374,18.747-25,18.747S-269.306,260.029-269.306,260.029Z" transform="translate(376 19.971)" fill="#84e9f4"/>
  </g>
</svg>
