<svg xmlns="http://www.w3.org/2000/svg" xmlns:xlink="http://www.w3.org/1999/xlink" width="152.667" height="172" viewBox="0 0 152.667 172">
  <defs>
    <filter id="Rectangle_23921" x="-40" y="-39" width="248.667" height="268" filterUnits="userSpaceOnUse">
      <feOffset dx="8" dy="9" input="SourceAlpha"/>
      <feGaussianBlur stdDeviation="16" result="blur"/>
      <feFlood flood-opacity="0.051"/>
      <feComposite operator="in" in2="blur"/>
      <feComposite in="SourceGraphic"/>
    </filter>
    <clipPath id="clip-path">
      <g transform="matrix(1, 0, 0, 1, 0, 0)" filter="url(#Rectangle_23921)">
        <rect id="Rectangle_23921-2" data-name="Rectangle 23921" width="152.667" height="172" rx="10" fill="#5046bb"/>
      </g>
    </clipPath>
  </defs>
  <g id="Mask_Group_10" data-name="Mask Group 10" clip-path="url(#clip-path)">
    <path id="Path_85079" data-name="Path 85079" d="M-269.306,260.029s54.125-15.719,39.6-68.525-60.882-40.744-55.414-111.828,62.491-110.922,62.491-110.922,49.993,78.9,49.993,86.707V207c0,2.343,18.747,44.525,18.747,44.525s-9.374,18.747-25,18.747S-269.306,260.029-269.306,260.029Z" transform="translate(325 -88.029)" fill="#fb896b" opacity="0.33"/>
    <path id="Path_85080" data-name="Path 85080" d="M-269.306,260.029s54.125-15.719,39.6-68.525-60.882-40.744-55.414-111.828,62.491-110.922,62.491-110.922,49.993,78.9,49.993,86.707V207c0,2.343,18.747,44.525,18.747,44.525s-9.374,18.747-25,18.747S-269.306,260.029-269.306,260.029Z" transform="translate(347 -88.029)" fill="#fb896b"/>
  </g>
</svg>
