<svg xmlns="http://www.w3.org/2000/svg" xmlns:xlink="http://www.w3.org/1999/xlink" width="24" height="24" viewBox="0 0 24 24">
  <defs>
    <clipPath id="clip-path">
      <rect id="Rectangle_23914" data-name="Rectangle 23914" width="24" height="24" transform="translate(33 133)" fill="#51459f" stroke="#707070" stroke-width="1"/>
    </clipPath>
  </defs>
  <g id="Mask_Group_5" data-name="Mask Group 5" transform="translate(-33 -133)" clip-path="url(#clip-path)">
    <g id="business-report" transform="translate(33 133)">
      <path id="Path_85068" data-name="Path 85068" d="M21.891.8H2.109A2.112,2.112,0,0,0,0,2.906V16.594A2.112,2.112,0,0,0,2.109,18.7H8.92L8.4,21.8H7.5a.7.7,0,0,0,0,1.406h9a.7.7,0,0,0,0-1.406h-.9L15.08,18.7h6.811A2.112,2.112,0,0,0,24,16.594V2.906A2.112,2.112,0,0,0,21.891.8Zm-7.721,21H9.83l.516-3.094h3.309Zm8.424-5.2a.7.7,0,0,1-.7.7H2.109a.7.7,0,0,1-.7-.7V2.906a.7.7,0,0,1,.7-.7H11.3V3A.7.7,0,0,0,12.7,3V2.2h9.188a.7.7,0,0,1,.7.7Z" fill="#51459f"/>
      <path id="Path_85069" data-name="Path 85069" d="M9.75,9.8a.7.7,0,0,0-.7.7v2.3H7.453V8.25a.7.7,0,0,0-1.406,0V12.8H4.453V6A.7.7,0,0,0,3.047,6v7.5a.7.7,0,0,0,.7.7h6a.7.7,0,0,0,.7-.7v-3A.7.7,0,0,0,9.75,9.8Z" fill="#51459f"/>
      <path id="Path_85070" data-name="Path 85070" d="M16.875,5.672A4.076,4.076,0,0,0,13.96,12.6a.462.462,0,0,0,.066.066,4.077,4.077,0,1,0,2.849-6.993Zm2.577,3.375H17.578V7.173A2.681,2.681,0,0,1,19.452,9.047Zm-3.28-1.874V9.459l-1.616,1.616A2.673,2.673,0,0,1,16.172,7.173Zm-.621,4.9,1.616-1.616h2.286A2.673,2.673,0,0,1,15.55,12.069Z" fill="#51459f"/>
    </g>
  </g>
</svg>
