<svg xmlns="http://www.w3.org/2000/svg" width="34" height="34" viewBox="0 0 34 34">
  <g id="Edit" transform="translate(-0.5 0.5)">
    <circle id="Ellipse_5079" data-name="Ellipse 5079" cx="17" cy="17" r="17" transform="translate(0.5 -0.5)" fill="#dedede"/>
    <g id="delete_2_" data-name="delete (2)" transform="translate(11.5 8.5)">
      <path id="Path_59371" data-name="Path 59371" d="M73.812,1.416a.8.8,0,0,1,.827-.8h3.4a.8.8,0,0,1,.827.8V2.3h.612v-.88A1.411,1.411,0,0,0,78.037,0h-3.4A1.411,1.411,0,0,0,73.2,1.416V2.3h.612Zm0,0" transform="translate(-70.398)" fill="#e20120"/>
      <path id="Path_59372" data-name="Path 59372" d="M29.439,134.831h7.241a1.3,1.3,0,0,0,1.24-1.378V124H28.2v9.454a1.3,1.3,0,0,0,1.24,1.378Zm5.573-9.369a.306.306,0,1,1,.612,0V132.7a.306.306,0,1,1-.612,0Zm-2.258,0a.306.306,0,1,1,.612,0V132.7a.306.306,0,1,1-.612,0Zm-2.258,0a.306.306,0,1,1,.612,0V132.7a.306.306,0,1,1-.612,0Zm0,0" transform="translate(-27.12 -119.254)" fill="#e20120"/>
      <path id="Path_59373" data-name="Path 59373" d="M.765,69.531H11.115a.765.765,0,0,0,0-1.531H.765a.765.765,0,0,0,0,1.531Zm0,0" transform="translate(0 -65.397)" fill="#e20120"/>
    </g>
  </g>
</svg>
