<svg xmlns="http://www.w3.org/2000/svg" width="34" height="34" viewBox="0 0 34 34">
  <g id="Edit" transform="translate(-0.5 0.5)">
    <circle id="Ellipse_5079" data-name="Ellipse 5079" cx="17" cy="17" r="17" transform="translate(0.5 -0.5)" fill="#dedede"/>
    <path id="Subtraction_6" data-name="Subtraction 6" d="M-4626.906,105.8a.716.716,0,0,1-.563-.282.711.711,0,0,1-.121-.619l.878-3.289,3.268,3.282-3.273.883A.723.723,0,0,1-4626.906,105.8Zm4.629-2.27h0l-3.252-3.267,9.672-9.714a1.164,1.164,0,0,1,.831-.345,1.163,1.163,0,0,1,.829.345l1.593,1.6a1.184,1.184,0,0,1,0,1.668l-9.672,9.714Z" transform="translate(4637.116 -81.702)" fill="#5046bb"/>
  </g>
</svg>
