<svg xmlns="http://www.w3.org/2000/svg" xmlns:xlink="http://www.w3.org/1999/xlink" width="24" height="24" viewBox="0 0 24 24">
  <defs>
    <clipPath id="clip-path">
      <rect id="Rectangle_23916" data-name="Rectangle 23916" width="24" height="24" transform="translate(33 323)" fill="#b2b2b2" stroke="#707070" stroke-width="1"/>
    </clipPath>
  </defs>
  <g id="Mask_Group_8" data-name="Mask Group 8" transform="translate(-33 -323)" clip-path="url(#clip-path)">
    <path id="calendar-check-alt" d="M12.266,21.466H5.576c-1.759,0-2.509-.75-2.509-2.509v-9.2h18.4v2.509a.836.836,0,1,0,1.673,0V7.248a3.772,3.772,0,0,0-4.182-4.182H17.563V2.23a.836.836,0,1,0-1.673,0v.836H8.642V2.23a.836.836,0,1,0-1.673,0v.836H5.576A3.772,3.772,0,0,0,1.394,7.248V18.957a3.772,3.772,0,0,0,4.182,4.182h6.691a.836.836,0,1,0,0-1.673ZM5.576,4.739H6.969v.836a.836.836,0,0,0,1.673,0V4.739H15.89v.836a.836.836,0,1,0,1.673,0V4.739h1.394c1.759,0,2.509.75,2.509,2.509v.836H3.067V7.248C3.067,5.49,3.817,4.739,5.576,4.739Zm3.368,8.642a1.115,1.115,0,1,1-1.126-1.115h.011A1.115,1.115,0,0,1,8.943,13.381Zm4.46,0a1.115,1.115,0,1,1-1.126-1.115h.011A1.115,1.115,0,0,1,13.4,13.381Zm6.668,1.394a5.3,5.3,0,1,0,5.3,5.3,5.3,5.3,0,0,0-5.3-5.3Zm0,8.921A3.624,3.624,0,1,1,23.7,20.072,3.624,3.624,0,0,1,20.072,23.7Zm1.985-5.145a.836.836,0,0,1,0,1.183L20.2,21.593a.837.837,0,0,1-1.182,0l-.929-.93a.836.836,0,0,1,1.182-1.182l.335.335,1.268-1.267a.835.835,0,0,1,1.185,0ZM8.943,17.842a1.115,1.115,0,1,1-1.126-1.115h.011A1.115,1.115,0,0,1,8.943,17.842Z" transform="translate(31.631 321.619)" fill="#b2b2b2"/>
  </g>
</svg>
