<svg xmlns="http://www.w3.org/2000/svg" xmlns:xlink="http://www.w3.org/1999/xlink" width="24" height="24" viewBox="0 0 24 24">
  <defs>
    <clipPath id="clip-path">
      <rect id="Rectangle_23915" data-name="Rectangle 23915" width="24" height="24" transform="translate(33 196)" fill="#b2b2b2" stroke="#b2b2b2" stroke-width="0.5"/>
    </clipPath>
  </defs>
  <g id="Mask_Group_6" data-name="Mask Group 6" transform="translate(-33 -196)" clip-path="url(#clip-path)">
    <g id="XMLID_2659_" transform="translate(33.902 196.902)">
      <g id="XMLID_256_" transform="translate(0 0)">
        <path id="XMLID_476_" d="M13.046,11.286a1.813,1.813,0,0,0,.45-1.2V9.743a1.821,1.821,0,1,0-3.641,0v.347a1.813,1.813,0,0,0,.45,1.2,4,4,0,0,0-2.618,3.746.434.434,0,0,0,.434.434h1.6a.434.434,0,0,0,0-.867H8.584a3.122,3.122,0,0,1,6.182,0h-1.14a.434.434,0,1,0,0,.867h1.6a.434.434,0,0,0,.434-.434A4,4,0,0,0,13.046,11.286Zm-2.324-1.2V9.743a.954.954,0,0,1,1.907,0v.347a.954.954,0,0,1-1.907,0Z" transform="translate(-0.578 -0.596)" fill="#b2b2b2" stroke="#b2b2b2" stroke-width="0.5"/>
        <path id="XMLID_479_" d="M11.418,3.589V5.9a.434.434,0,1,0,.867,0V3.589a1.821,1.821,0,1,0-.867,0ZM11.852.867a.954.954,0,1,1-.954.954.955.955,0,0,1,.954-.954Z" transform="translate(-0.754 0)" fill="#b2b2b2" stroke="#b2b2b2" stroke-width="0.5"/>
        <path id="XMLID_482_" d="M12.285,19.9v-2.22a.434.434,0,0,0-.867,0V19.9a1.821,1.821,0,1,0,.867,0Zm-.434,2.722a.954.954,0,1,1,.954-.954A.955.955,0,0,1,11.852,22.625Z" transform="translate(-0.754 -1.297)" fill="#b2b2b2" stroke="#b2b2b2" stroke-width="0.5"/>
        <path id="XMLID_485_" d="M21.665,10.031A1.824,1.824,0,0,0,19.9,11.418H17.59a.434.434,0,0,0,0,.867H19.9a1.821,1.821,0,1,0,1.768-2.254Zm0,2.774a.954.954,0,1,1,.954-.954A.955.955,0,0,1,21.665,12.806Z" transform="translate(-1.29 -0.754)" fill="#b2b2b2" stroke="#b2b2b2" stroke-width="0.5"/>
        <path id="XMLID_488_" d="M3.589,12.285H5.9a.434.434,0,1,0,0-.867H3.589a1.821,1.821,0,1,0,0,.867Zm-1.768.52a.954.954,0,1,1,.954-.954.955.955,0,0,1-.954.954Z" transform="translate(0 -0.754)" fill="#b2b2b2" stroke="#b2b2b2" stroke-width="0.5"/>
        <path id="XMLID_491_" d="M18.9,17.084a1.809,1.809,0,0,0-.944.263l-.637-.637a.434.434,0,1,0-.613.613l.637.637a1.82,1.82,0,1,0,1.557-.877Zm.674,2.5a.954.954,0,1,1,0-1.349A.948.948,0,0,1,19.579,19.579Z" transform="translate(-1.247 -1.247)" fill="#b2b2b2" stroke="#b2b2b2" stroke-width="0.5"/>
        <path id="XMLID_810_" d="M3.471,6.046A1.823,1.823,0,0,0,5.7,6.316L7.334,7.947a.434.434,0,0,0,.613-.613L6.316,5.7a1.821,1.821,0,1,0-2.844.344h0Zm.613-1.962A.954.954,0,0,1,5.433,5.433h0A.954.954,0,0,1,4.085,4.085Z" transform="translate(-0.221 -0.221)" fill="#b2b2b2" stroke="#b2b2b2" stroke-width="0.5"/>
        <path id="XMLID_815_" d="M15.942,8.074a.432.432,0,0,0,.307-.127L17.88,6.316a1.821,1.821,0,1,0-.613-.613L15.636,7.334a.433.433,0,0,0,.306.74Zm2.207-3.989a.954.954,0,1,1,0,1.349h0A.955.955,0,0,1,18.149,4.085Z" transform="translate(-1.166 -0.221)" fill="#b2b2b2" stroke="#b2b2b2" stroke-width="0.5"/>
        <path id="XMLID_819_" d="M6.34,16.711l-.637.637a1.822,1.822,0,1,0,.613.614l.637-.637a.434.434,0,1,0-.613-.613Zm-.906,2.868a.954.954,0,1,1,0-1.349A.948.948,0,0,1,5.433,19.579Z" transform="translate(-0.221 -1.247)" fill="#b2b2b2" stroke="#b2b2b2" stroke-width="0.5"/>
        <path id="XMLID_821_" d="M11.965,16.008a.434.434,0,1,0-.306-.127A.437.437,0,0,0,11.965,16.008Z" transform="translate(-0.867 -1.138)" fill="#b2b2b2" stroke="#b2b2b2" stroke-width="0.5"/>
      </g>
    </g>
  </g>
</svg>
