<svg xmlns="http://www.w3.org/2000/svg" xmlns:xlink="http://www.w3.org/1999/xlink" width="24" height="24" viewBox="0 0 24 24">
  <defs>
    <clipPath id="clip-path">
      <rect id="Rectangle_23917" data-name="Rectangle 23917" width="24" height="24" transform="translate(33 260)" fill="#b2b2b2" stroke="#707070" stroke-width="1"/>
    </clipPath>
  </defs>
  <g id="Mask_Group_7" data-name="Mask Group 7" transform="translate(-33 -260)" clip-path="url(#clip-path)">
    <g id="report" transform="translate(33 260)">
      <path id="Path_85071" data-name="Path 85071" d="M8.8,11.2a.8.8,0,0,1-.8-.8V8a.8.8,0,1,1,1.6,0v2.4a.8.8,0,0,1-.8.8Z" fill="#b2b2b2"/>
      <path id="Path_85072" data-name="Path 85072" d="M12,11.2a.8.8,0,0,1-.8-.8V7.2a.8.8,0,0,1,1.6,0v3.2A.8.8,0,0,1,12,11.2Z" fill="#b2b2b2"/>
      <path id="Path_85073" data-name="Path 85073" d="M15.2,11.2a.8.8,0,0,1-.8-.8V5.6a.8.8,0,1,1,1.6,0v4.8a.8.8,0,0,1-.8.795Z" fill="#b2b2b2"/>
      <path id="Path_85074" data-name="Path 85074" d="M18.4,24H5.6a3.2,3.2,0,0,1-3.2-3.2V6.3A3.99,3.99,0,0,1,3.84,3.225L6.6.93A4.013,4.013,0,0,1,9.158,0H18.4a3.2,3.2,0,0,1,3.2,3.2V20.8A3.2,3.2,0,0,1,18.4,24ZM9.158,1.6a2.407,2.407,0,0,0-1.5.555l-2.8,2.3A2.392,2.392,0,0,0,4,6.3V20.8a1.6,1.6,0,0,0,1.6,1.6H18.4a1.605,1.605,0,0,0,1.6-1.6V3.2a1.6,1.6,0,0,0-1.6-1.6Z" fill="#b2b2b2"/>
      <path id="Path_85075" data-name="Path 85075" d="M16.8,19.2H7.2a.8.8,0,1,1,0-1.6h9.6a.8.8,0,1,1,0,1.6Z" fill="#b2b2b2"/>
      <path id="Path_85076" data-name="Path 85076" d="M16.8,15.2H7.2a.8.8,0,0,1,0-1.6h9.6a.8.8,0,1,1,0,1.6Z" fill="#b2b2b2"/>
    </g>
  </g>
</svg>
